<?xml version="1.0" encoding="UTF-8"?>
<!-- Generated by Pixelmator Pro 3.3.11 -->
<svg width="17" height="13" viewBox="0 0 17 13" xmlns="http://www.w3.org/2000/svg">
    <path id="Rectangle" fill="#000000" fill-rule="evenodd" stroke="none" d="M 1 1 L 16 1 L 16 0 L 1 0 Z"/>
    <path id="path1" fill="#000000" fill-rule="evenodd" stroke="none" d="M 0 12 L 1 12 L 1 1 L 0 1 Z"/>
    <path id="path2" fill="#000000" fill-rule="evenodd" stroke="none" d="M 1 13 L 16 13 L 16 12 L 1 12 Z"/>
    <path id="path3" fill="#000000" fill-rule="evenodd" stroke="none" d="M 16 12 L 17 12 L 17 1 L 16 1 Z"/>
    <path id="path4" fill="#eeeeee" fill-rule="evenodd" stroke="none" d="M 1 2 L 2 2 L 2 1 L 1 1 Z"/>
    <path id="path5" fill="#cccccc" fill-rule="evenodd" stroke="none" d="M 2 2 L 15 2 L 15 1 L 2 1 Z"/>
    <path id="path6" fill="#cccccc" fill-rule="evenodd" stroke="none" d="M 1 11 L 2 11 L 2 2 L 1 2 Z"/>
    <path id="path7" fill="#aaaaaa" fill-rule="evenodd" stroke="none" d="M 15 2 L 16 2 L 16 1 L 15 1 Z"/>
    <path id="path8" fill="#aaaaaa" fill-rule="evenodd" stroke="none" d="M 1 12 L 2 12 L 2 11 L 1 11 Z"/>
    <path id="path9" fill="#aaaaaa" fill-rule="evenodd" stroke="none" d="M 2 3 L 15 3 L 15 2 L 2 2 Z"/>
    <path id="path10" fill="#aaaaaa" fill-rule="evenodd" stroke="none" d="M 2 11 L 15 11 L 15 9 L 2 9 Z"/>
    <path id="path11" fill="#aaaaaa" fill-rule="evenodd" stroke="none" d="M 13 9 L 15 9 L 15 3 L 13 3 Z"/>
    <path id="path12" fill="#aaaaaa" fill-rule="evenodd" stroke="none" d="M 2 9 L 4 9 L 4 3 L 2 3 Z"/>
    <path id="path13" fill="#aaaaaa" fill-rule="evenodd" stroke="none" d="M 12 4 L 13 4 L 13 3 L 12 3 Z"/>
    <path id="path14" fill="#aaaaaa" fill-rule="evenodd" stroke="none" d="M 12 6 L 13 6 L 13 5 L 12 5 Z"/>
    <path id="path15" fill="#aaaaaa" fill-rule="evenodd" stroke="none" d="M 12 8 L 13 8 L 13 7 L 12 7 Z"/>
    <path id="path16" fill="#aaaaaa" fill-rule="evenodd" stroke="none" d="M 4 5 L 5 5 L 5 4 L 4 4 Z"/>
    <path id="path17" fill="#aaaaaa" fill-rule="evenodd" stroke="none" d="M 4 7 L 5 7 L 5 6 L 4 6 Z"/>
    <path id="path18" fill="#aaaaaa" fill-rule="evenodd" stroke="none" d="M 4 9 L 5 9 L 5 8 L 4 8 Z"/>
    <path id="path19" fill="#cccccc" fill-rule="evenodd" stroke="none" d="M 5 4 L 12 4 L 12 3 L 5 3 Z"/>
    <path id="path20" fill="#cccccc" fill-rule="evenodd" stroke="none" d="M 5 6 L 12 6 L 12 5 L 5 5 Z"/>
    <path id="path21" fill="#cccccc" fill-rule="evenodd" stroke="none" d="M 5 8 L 12 8 L 12 7 L 5 7 Z"/>
    <path id="path22" fill="#eeeeee" fill-rule="evenodd" stroke="none" d="M 4 4 L 5 4 L 5 3 L 4 3 Z"/>
    <path id="path23" fill="#eeeeee" fill-rule="evenodd" stroke="none" d="M 4 6 L 5 6 L 5 5 L 4 5 Z"/>
    <path id="path24" fill="#eeeeee" fill-rule="evenodd" stroke="none" d="M 4 8 L 5 8 L 5 7 L 4 7 Z"/>
    <path id="path25" fill="#222222" fill-rule="evenodd" stroke="none" d="M 5 5 L 13 5 L 13 4 L 5 4 Z"/>
    <path id="path26" fill="#222222" fill-rule="evenodd" stroke="none" d="M 5 7 L 13 7 L 13 6 L 5 6 Z"/>
    <path id="path27" fill="#222222" fill-rule="evenodd" stroke="none" d="M 5 9 L 13 9 L 13 8 L 5 8 Z"/>
    <path id="path28" fill="#555555" fill-rule="evenodd" stroke="none" d="M 15 12 L 16 12 L 16 2 L 15 2 Z"/>
    <path id="path29" fill="#555555" fill-rule="evenodd" stroke="none" d="M 2 12 L 15 12 L 15 11 L 2 11 Z"/>
</svg>
