<?xml version="1.0" encoding="UTF-8"?>
<!-- Generated by Pixelmator Pro 3.3.11 -->
<svg width="19" height="3" viewBox="0 0 19 3" xmlns="http://www.w3.org/2000/svg">
    <path id="Rectangle" fill="#dddddd" fill-rule="evenodd" stroke="none" d="M 0 3 L 19 3 L 19 2 L 0 2 Z"/>
    <path id="path1" fill="#dddddd" fill-rule="evenodd" stroke="none" d="M 0 2 L 8 2 L 8 1 L 0 1 Z"/>
    <path id="path2" fill="#dddddd" fill-rule="evenodd" stroke="none" d="M 0 1 L 7 1 L 7 0 L 0 0 Z"/>
    <path id="path3" fill="#dddddd" fill-rule="evenodd" stroke="none" d="M 12 2 L 19 2 L 19 1 L 12 1 Z"/>
    <path id="path4" fill="#dddddd" fill-rule="evenodd" stroke="none" d="M 13 1 L 19 1 L 19 0 L 13 0 Z"/>
    <path id="path5" fill="#ffffff" fill-rule="evenodd" stroke="none" d="M 11 1 L 13 1 L 13 0 L 11 0 Z"/>
    <path id="path6" fill="#ffffff" fill-rule="evenodd" stroke="none" d="M 8 2 L 12 2 L 12 1 L 8 1 Z"/>
    <path id="path7" fill="#ffffff" fill-rule="evenodd" stroke="none" d="M 7 1 L 8 1 L 8 0 L 7 0 Z"/>
    <path id="path8" fill="#000000" fill-rule="evenodd" stroke="none" d="M 8 1 L 11 1 L 11 0 L 8 0 Z"/>
</svg>
