<?xml version="1.0" encoding="UTF-8"?>
<!-- Generated by Pixelmator Pro 3.3.11 -->
<svg width="19" height="3" viewBox="0 0 19 3" xmlns="http://www.w3.org/2000/svg">
    <path id="Rectangle" fill="#000000" fill-rule="evenodd" stroke="none" d="M 8 3 L 11 3 L 11 2 L 8 2 Z"/>
    <path id="path1" fill="#ffffff" fill-rule="evenodd" stroke="none" d="M 11 3 L 12 3 L 12 2 L 11 2 Z"/>
    <path id="path2" fill="#dddddd" fill-rule="evenodd" stroke="none" d="M 0 1 L 19 1 L 19 0 L 0 0 Z"/>
    <path id="path3" fill="#dddddd" fill-rule="evenodd" stroke="none" d="M 0 3 L 6 3 L 6 2 L 0 2 Z"/>
    <path id="path4" fill="#dddddd" fill-rule="evenodd" stroke="none" d="M 0 2 L 7 2 L 7 1 L 0 1 Z"/>
    <path id="path5" fill="#dddddd" fill-rule="evenodd" stroke="none" d="M 12 3 L 19 3 L 19 2 L 12 2 Z"/>
    <path id="path6" fill="#dddddd" fill-rule="evenodd" stroke="none" d="M 11 2 L 19 2 L 19 1 L 11 1 Z"/>
    <path id="path7" fill="#aaaaaa" fill-rule="evenodd" stroke="none" d="M 6 3 L 8 3 L 8 2 L 6 2 Z"/>
    <path id="path8" fill="#aaaaaa" fill-rule="evenodd" stroke="none" d="M 7 2 L 8 2 L 8 1 L 7 1 Z"/>
    <path id="path9" fill="#aaaaaa" fill-rule="evenodd" stroke="none" d="M 8 2 L 11 2 L 11 1 L 8 1 Z"/>
</svg>
